<?xml version="1.0" standalone="no"?>
<!DOCTYPE svg PUBLIC "-//W3C//DTD SVG 20010904//EN"
 "http://www.w3.org/TR/2001/REC-SVG-20010904/DTD/svg10.dtd">
<svg version="1.0" xmlns="http://www.w3.org/2000/svg"
 width="64.000000pt" height="64.000000pt" viewBox="0 0 64.000000 64.000000"
 preserveAspectRatio="xMidYMid meet">

<g transform="translate(0.000000,64.000000) scale(0.100000,-0.100000)"
fill="#000000" stroke="none">
<path d="M275 586 c-78 -35 -107 -121 -63 -187 l25 -35 -24 -34 c-12 -19 -23
-40 -23 -46 0 -7 29 -27 65 -45 l65 -34 65 34 c36 18 65 38 65 45 0 6 -11 27
-23 46 l-24 34 25 35 c45 67 15 153 -65 187 -39 17 -50 17 -88 0z m107 -28
c24 -12 48 -61 48 -97 0 -17 -11 -42 -26 -61 l-27 -31 23 -40 c12 -22 20 -42
19 -43 -2 -2 -25 -15 -51 -30 l-48 -28 -47 28 c-27 15 -50 28 -52 30 -1 1 7
21 19 43 l23 40 -27 31 c-79 95 33 217 146 158z"/>
<path d="M264 439 c-10 -17 13 -36 27 -22 12 12 4 33 -11 33 -5 0 -12 -5 -16
-11z"/>
<path d="M344 439 c-10 -17 13 -36 27 -22 12 12 4 33 -11 33 -5 0 -12 -5 -16
-11z"/>
<path d="M55 266 c-20 -16 -27 -28 -20 -35 21 -20 267 -151 285 -151 18 0 264
131 285 151 11 12 -40 59 -64 59 -7 0 -60 -25 -117 -56 l-104 -56 -104 56
c-57 31 -110 56 -117 56 -8 0 -27 -11 -44 -24z m177 -57 l88 -49 107 59 c106
59 108 59 135 43 15 -9 28 -19 28 -22 0 -3 -61 -38 -135 -78 l-135 -74 -135
74 c-74 40 -135 75 -135 78 0 3 12 13 27 22 21 13 32 14 48 6 11 -6 59 -33
107 -59z"/>
<path d="M57 173 c-4 -3 -7 -17 -7 -30 0 -29 43 -52 68 -37 27 18 25 33 -10
54 -36 22 -41 23 -51 13z m53 -44 c0 -18 -35 -5 -38 14 -3 16 -1 17 17 7 12
-6 21 -15 21 -21z"/>
<path d="M532 160 c-35 -21 -37 -36 -10 -54 12 -7 25 -6 43 2 20 9 26 18 23
39 -4 35 -16 37 -56 13z m35 -25 c-7 -16 -37 -21 -37 -5 0 10 32 31 39 25 2
-2 1 -11 -2 -20z"/>
</g>
</svg>
