<?xml version="1.0" standalone="no"?>
<!DOCTYPE svg PUBLIC "-//W3C//DTD SVG 20010904//EN"
 "http://www.w3.org/TR/2001/REC-SVG-20010904/DTD/svg10.dtd">
<svg version="1.0" xmlns="http://www.w3.org/2000/svg"
 width="64.000000pt" height="64.000000pt" viewBox="0 0 64.000000 64.000000"
 preserveAspectRatio="xMidYMid meet">

<g transform="translate(0.000000,64.000000) scale(0.100000,-0.100000)"
fill="#000000" stroke="none">
<path d="M255 566 c-67 -17 -103 -37 -147 -83 -44 -45 -58 -79 -58 -139 0 -91
60 -168 160 -205 55 -20 59 -23 48 -43 -6 -11 -17 -28 -25 -38 -9 -9 -10 -18
-5 -22 16 -10 97 29 118 57 11 13 35 28 54 32 81 17 150 69 185 138 30 60 31
107 6 162 -51 112 -202 175 -336 141z m214 -44 c76 -38 113 -87 119 -157 3
-32 -1 -68 -8 -85 -24 -58 -138 -139 -196 -140 -12 0 -40 -18 -62 -40 -48 -48
-69 -53 -47 -10 22 42 19 47 -25 55 -50 9 -127 59 -157 104 -46 69 -39 150 19
217 81 92 236 117 357 56z"/>
<path d="M212 348 c2 -13 10 -23 18 -23 8 0 16 10 18 23 3 17 -2 22 -18 22
-16 0 -21 -5 -18 -22z"/>
<path d="M304 355 c-4 -9 -2 -21 4 -27 15 -15 44 -1 40 19 -4 23 -36 29 -44 8z"/>
<path d="M400 340 c0 -13 7 -20 20 -20 13 0 20 7 20 20 0 13 -7 20 -20 20 -13
0 -20 -7 -20 -20z"/>
</g>
</svg>
